<?xml version="1.0" encoding="UTF-8" standalone="no"?>
<svg
   width="171.30931mm"
   height="17.658543mm"
   viewBox="0 0 2428.006 250.27856"
   version="1.2"
   id="svg42"
   sodipodi:docname="Flageolett-Violine-1.svg"
   inkscape:version="1.4 (86a8ad7, 2024-10-11)"
   xmlns:inkscape="http://www.inkscape.org/namespaces/inkscape"
   xmlns:sodipodi="http://sodipodi.sourceforge.net/DTD/sodipodi-0.dtd"
   xmlns="http://www.w3.org/2000/svg"
   xmlns:svg="http://www.w3.org/2000/svg"
   xmlns:rdf="http://www.w3.org/1999/02/22-rdf-syntax-ns#"
   xmlns:cc="http://creativecommons.org/ns#"
   xmlns:dc="http://purl.org/dc/elements/1.1/">
  <defs
     id="defs42" />
  <sodipodi:namedview
     id="namedview42"
     pagecolor="#505050"
     bordercolor="#ffffff"
     borderopacity="1"
     inkscape:showpageshadow="0"
     inkscape:pageopacity="0"
     inkscape:pagecheckerboard="1"
     inkscape:deskcolor="#d1d1d1"
     inkscape:document-units="mm"
     inkscape:zoom="1.6173011"
     inkscape:cx="307.30208"
     inkscape:cy="478.26591"
     inkscape:window-width="3840"
     inkscape:window-height="2054"
     inkscape:window-x="-11"
     inkscape:window-y="-11"
     inkscape:window-maximized="1"
     inkscape:current-layer="svg42" />
  <title
     id="title1">Flageolett-Violine</title>
  <desc
     id="desc1">Generated by MuseScore Studio 4.5.2</desc>
  <polyline
     class="StaffLines"
     fill="none"
     stroke="#000000"
     stroke-width="3.22"
     stroke-linejoin="bevel"
     points="336.599,386.199 2764.6,386.199"
     id="polyline1"
     transform="translate(-336.599,-310.60551)" />
  <polyline
     class="StaffLines"
     fill="none"
     stroke="#000000"
     stroke-width="3.22"
     stroke-linejoin="bevel"
     points="336.599,410.999 2764.6,410.999"
     id="polyline2"
     transform="translate(-336.599,-310.60551)" />
  <polyline
     class="StaffLines"
     fill="none"
     stroke="#000000"
     stroke-width="3.22"
     stroke-linejoin="bevel"
     points="336.599,435.799 2764.6,435.799"
     id="polyline3"
     transform="translate(-336.599,-310.60551)" />
  <polyline
     class="StaffLines"
     fill="none"
     stroke="#000000"
     stroke-width="3.22"
     stroke-linejoin="bevel"
     points="336.599,460.599 2764.6,460.599"
     id="polyline4"
     transform="translate(-336.599,-310.60551)" />
  <polyline
     class="StaffLines"
     fill="none"
     stroke="#000000"
     stroke-width="3.22"
     stroke-linejoin="bevel"
     points="336.599,485.399 2764.6,485.399"
     id="polyline5"
     transform="translate(-336.599,-310.60551)" />
  <polyline
     class="BarLine"
     fill="none"
     stroke="#000000"
     stroke-width="3.97"
     stroke-linejoin="bevel"
     points="2284.66,384.587 2284.66,487.011"
     id="polyline6"
     transform="translate(-336.599,-310.60551)" />
  <polyline
     class="BarLine"
     fill="none"
     stroke="#000000"
     stroke-width="3.97"
     stroke-linejoin="bevel"
     points="2762.62,384.587 2762.62,487.011"
     id="polyline7"
     transform="translate(-336.599,-310.60551)" />
  <polyline
     class="BarLine"
     fill="none"
     stroke="#000000"
     stroke-width="3.97"
     stroke-linejoin="bevel"
     points="1356.41,384.587 1356.41,487.011"
     id="polyline8"
     transform="translate(-336.599,-310.60551)" />
  <polyline
     class="BarLine"
     fill="none"
     stroke="#000000"
     stroke-width="3.97"
     stroke-linejoin="bevel"
     points="1812.45,384.587 1812.45,487.011"
     id="polyline9"
     transform="translate(-336.599,-310.60551)" />
  <polyline
     class="BarLine"
     fill="none"
     stroke="#000000"
     stroke-width="3.97"
     stroke-linejoin="bevel"
     points="900.366,384.587 900.366,487.011"
     id="polyline10"
     transform="translate(-336.599,-310.60551)" />
  <path
     class="Accidental"
     d="m 1507.9321,194.04442 c -0.186,0 -0.2946,0.0931 -0.3876,0.0931 0,0 -6.355,2.27853 -8.928,2.27853 -0.6045,0 -0.992,-0.0931 -0.992,-0.496 v -16.56959 c 0,-0.69748 -0.6045,-1.19348 -1.1935,-1.19348 h -1.2865 c -0.6975,0 -1.1935,0.496 -1.1935,1.19348 v 51.08815 c 0,0.60442 0.2945,0.89895 0.899,0.89895 l 0.186,-0.093 c 0.1085,0 0.31,0 0.403,-0.10853 1.395,-0.58905 6.944,-2.976 9.8271,-2.976 0.992,0 1.674,0.29453 1.674,1.10053 v 14.77149 c 0,0.69747 0.496,1.19347 1.1934,1.19347 h 1.2866 c 0.6044,0 1.1934,-0.496 1.1934,-1.19347 v -49.80163 c 0,-0.496 -0.3874,-0.79043 -0.7905,-0.79043 -0.093,0 -0.2945,0 -0.4029,0.10843 l -1.488,0.496 m -10.3076,14.07406 c 0,-1.3795 6.045,-3.968 8.432,-3.968 0.589,0 0.8836,0.1085 0.8836,0.496 v 10.23001 c 0,1.78251 -5.6421,4.06101 -8.1221,4.06101 -0.6975,0 -1.1935,-0.2015 -1.1935,-0.589 v -10.23002"
     id="path10"
     style="stroke-width:0.992001" />
  <path
     class="Accidental"
     d="m 1967.3545,228.85751 c 0.2945,0.40305 0.589,0.496 0.8835,0.496 0.31,0 0.6045,-0.20148 0.6045,-0.20148 2.976,-1.68948 5.3475,-4.35548 7.8276,-6.04505 8.8349,-6.15349 11.904,-12.19849 11.904,-16.771 0,-5.65755 -4.3556,-9.22251 -8.928,-9.51703 -1.674,0 -4.0611,0.79052 -5.4561,1.68948 -0.589,0.496 -1.674,1.37957 -2.17,1.37957 -0.2015,0 -0.31,0 -0.496,-0.0931 -0.6975,-0.29452 -1.1005,-0.992 -1.1005,-1.68948 0.1085,-2.18547 0.6975,-25.9935 0.6975,-27.9775 0,-1.08505 -0.899,-1.68957 -1.891,-1.68957 -1.3795,0 -2.976,0.992 -3.069,2.77452 0,0 0.403,56.65258 1.1935,57.64459 m 3.472,-8.83501 c 0,0 -0.2945,-5.95201 -0.2945,-9.92001 0,-1.581 0.093,-2.77451 0.186,-3.16201 0.6975,-1.984 4.6655,-4.867 6.9441,-4.867 2.8829,0 4.0764,3.2705 4.0764,5.7505 0,5.36302 -4.5724,10.71052 -8.835,13.39202 -0.3875,0.2015 -0.6975,0.2945 -0.992,0.2945 -0.8835,0 -1.085,-0.992 -1.085,-1.488"
     id="path11"
     style="stroke-width:0.992001" />
  <polyline
     class="LedgerLine"
     fill="none"
     stroke="#000000"
     stroke-width="3.97"
     stroke-linejoin="bevel"
     points="1851.68,510.199 1933.51,510.199"
     id="polyline11"
     transform="translate(-336.599,-310.60551)" />
  <polyline
     class="LedgerLine"
     fill="none"
     stroke="#000000"
     stroke-width="3.97"
     stroke-linejoin="bevel"
     points="1851.68,534.999 1917.04,534.999"
     id="polyline12"
     transform="translate(-336.599,-310.60551)" />
  <polyline
     class="LedgerLine"
     fill="none"
     stroke="#000000"
     stroke-width="3.97"
     stroke-linejoin="bevel"
     points="2058.99,361.399 2124.36,361.399"
     id="polyline13"
     transform="translate(-336.599,-310.60551)" />
  <polyline
     class="LedgerLine"
     fill="none"
     stroke="#000000"
     stroke-width="3.97"
     stroke-linejoin="bevel"
     points="467.388,510.199 532.751,510.199"
     id="polyline14"
     transform="translate(-336.599,-310.60551)" />
  <polyline
     class="LedgerLine"
     fill="none"
     stroke="#000000"
     stroke-width="3.97"
     stroke-linejoin="bevel"
     points="467.388,534.999 532.751,534.999"
     id="polyline15"
     transform="translate(-336.599,-310.60551)" />
  <polyline
     class="LedgerLine"
     fill="none"
     stroke="#000000"
     stroke-width="3.97"
     stroke-linejoin="bevel"
     points="923.43,534.999 988.793,534.999"
     id="polyline16"
     transform="translate(-336.599,-310.60551)" />
  <polyline
     class="LedgerLine"
     fill="none"
     stroke="#000000"
     stroke-width="3.97"
     stroke-linejoin="bevel"
     points="2329.64,510.199 2411.46,510.199"
     id="polyline17"
     transform="translate(-336.599,-310.60551)" />
  <polyline
     class="LedgerLine"
     fill="none"
     stroke="#000000"
     stroke-width="3.97"
     stroke-linejoin="bevel"
     points="2329.64,534.999 2395,534.999"
     id="polyline18"
     transform="translate(-336.599,-310.60551)" />
  <polyline
     class="LedgerLine"
     fill="none"
     stroke="#000000"
     stroke-width="3.97"
     stroke-linejoin="bevel"
     points="923.43,510.199 988.793,510.199"
     id="polyline19"
     transform="translate(-336.599,-310.60551)" />
  <polyline
     class="LedgerLine"
     fill="none"
     stroke="#000000"
     stroke-width="3.97"
     stroke-linejoin="bevel"
     points="2536.95,336.599 2602.32,336.599"
     id="polyline20"
     transform="translate(-336.599,-310.60551)" />
  <polyline
     class="LedgerLine"
     fill="none"
     stroke="#000000"
     stroke-width="3.97"
     stroke-linejoin="bevel"
     points="2536.95,361.399 2602.32,361.399"
     id="polyline21"
     transform="translate(-336.599,-310.60551)" />
  <polyline
     class="LedgerLine"
     fill="none"
     stroke="#000000"
     stroke-width="3.97"
     stroke-linejoin="bevel"
     points="1379.47,510.199 1461.3,510.199"
     id="polyline22"
     transform="translate(-336.599,-310.60551)" />
  <polyline
     class="LedgerLine"
     fill="none"
     stroke="#000000"
     stroke-width="3.97"
     stroke-linejoin="bevel"
     points="1379.47,534.999 1444.84,534.999"
     id="polyline23"
     transform="translate(-336.599,-310.60551)" />
  <path
     class="Note"
     d="m 170.26749,139.28295 c -2.09243,4.06103 -7.93598,7.44003 -12.10549,9.51703 -0.6975,0.40301 -0.992,0.89901 -0.992,1.19351 0,0.403 0.2945,0.7905 0.992,1.085 3.968,2.18551 9.82706,6.26201 12.10549,10.02849 0.496,0.79052 0.88357,1.28652 1.19357,1.28652 0.496,0 0.88348,-0.496 1.28643,-1.28652 1.68958,-3.37898 8.72653,-7.84298 12.10559,-9.71849 0.992,-0.403 1.37947,-0.806 1.37947,-1.1935 0,-0.496 -0.496,-0.899 -1.488,-1.48801 -4.35548,-3.0845 -8.92801,-4.867 -11.50106,-9.42403 -0.69747,-1.10052 -1.10043,-1.68947 -1.59643,-1.68947 -0.29452,0 -0.79052,0.58895 -1.37957,1.68947 m -2.48,11.70254 c 0,-2.573 2.18557,-9.33101 3.76652,-9.33101 1.39506,0 3.76653,4.6655 3.76653,7.64151 0,2.7745 -2.37147,10.02851 -3.85948,10.02851 -1.302,0 -3.67357,-6.26201 -3.67357,-8.33901"
     id="path23"
     style="stroke-width:0.992001" />
  <path
     class="Note"
     d="m 371.33402,136.4 c -14.38401,0 -23.31202,6.06048 -23.31202,13.39199 0,7.23851 6.15351,13.68656 22.22707,13.68656 17.65445,0 23.31203,-6.13805 23.31203,-13.68656 0,-7.64151 -12.19854,-13.39199 -22.22708,-13.39199 m -2.77452,2.48 c 7.34705,0 13.29906,7.93598 13.29906,14.49249 0,5.45601 -3.37905,7.62606 -8.24601,7.62606 -7.14548,0 -13.98106,-8.23055 -13.98106,-15.17457 0,-5.54901 3.85958,-6.94398 8.92801,-6.94398"
     id="path24"
     style="stroke-width:0.992001" />
  <path
     class="Note"
     d="m 164.02102,223.2 c -14.38401,0 -23.31202,6.06048 -23.31202,13.39199 0,7.23851 6.15351,13.68656 22.22707,13.68656 17.65445,0 23.31203,-6.13805 23.31203,-13.68656 0,-7.64151 -12.19854,-13.39199 -22.22708,-13.39199 m -2.77452,2.48 c 7.34705,0 13.29906,7.93598 13.29906,14.49249 0,5.45601 -3.37905,7.62606 -8.24601,7.62606 -7.14548,0 -13.98106,-8.23055 -13.98106,-15.17457 0,-5.54901 3.85958,-6.94398 8.92801,-6.94398"
     id="path25"
     style="stroke-width:0.992001" />
  <path
     class="Note"
     d="m 620.06302,223.2 c -14.38401,0 -23.31202,6.06048 -23.31202,13.39199 0,7.23851 6.15351,13.68656 22.22707,13.68656 17.65445,0 23.31203,-6.13805 23.31203,-13.68656 0,-7.64151 -12.19854,-13.39199 -22.22708,-13.39199 m -2.77452,2.48 c 7.34705,0 13.29906,7.93598 13.29906,14.49249 0,5.45601 -3.37905,7.62606 -8.24601,7.62606 -7.14548,0 -13.98106,-8.23055 -13.98106,-15.17457 0,-5.54901 3.85958,-6.94398 8.92801,-6.94398"
     id="path26"
     style="stroke-width:0.992001" />
  <path
     class="Note"
     d="m 1082.3485,188.88295 c -2.0924,4.06103 -7.936,7.44003 -12.1055,9.51703 -0.6975,0.40301 -0.992,0.89901 -0.992,1.19351 0,0.403 0.2945,0.7905 0.992,1.085 3.968,2.18551 9.8271,6.26201 12.1055,10.02849 0.496,0.79052 0.8836,1.28652 1.1936,1.28652 0.496,0 0.8834,-0.496 1.2864,-1.28652 1.6896,-3.37898 8.7265,-7.84298 12.1056,-9.71849 0.992,-0.403 1.3795,-0.806 1.3795,-1.1935 0,-0.496 -0.496,-0.899 -1.488,-1.48801 -4.3555,-3.0845 -8.9281,-4.867 -11.5011,-9.42403 -0.6975,-1.10052 -1.1004,-1.68947 -1.5964,-1.68947 -0.2946,0 -0.7906,0.58895 -1.3796,1.68947 m -2.48,11.70254 c 0,-2.573 2.1856,-9.33101 3.7665,-9.33101 1.3951,0 3.7665,4.6655 3.7665,7.64151 0,2.7745 -2.3714,10.02851 -3.8594,10.02851 -1.302,0 -3.6736,-6.26201 -3.6736,-8.33901"
     id="path27"
     style="stroke-width:0.992001" />
  <path
     class="Note"
     d="m 1076.103,223.2 c -14.384,0 -23.312,6.06048 -23.312,13.39199 0,7.23851 6.1535,13.68656 22.2271,13.68656 17.6544,0 23.312,-6.13805 23.312,-13.68656 0,-7.64151 -12.1985,-13.39199 -22.2271,-13.39199 m -2.7745,2.48 c 7.3471,0 13.2991,7.93598 13.2991,14.49249 0,5.45601 -3.3791,7.62606 -8.246,7.62606 -7.1455,0 -13.9811,-8.23055 -13.9811,-15.17457 0,-5.54901 3.8596,-6.94398 8.928,-6.94398"
     id="path28"
     style="stroke-width:0.992001" />
  <path
     class="Note"
     d="m 1554.5585,201.28295 c -2.0924,4.06103 -7.936,7.44003 -12.1055,9.51703 -0.6975,0.40301 -0.992,0.89901 -0.992,1.19351 0,0.403 0.2945,0.7905 0.992,1.085 3.968,2.18551 9.8271,6.26201 12.1055,10.02849 0.496,0.79052 0.8836,1.28652 1.1936,1.28652 0.496,0 0.8834,-0.496 1.2864,-1.28652 1.6896,-3.37898 8.7265,-7.84298 12.1056,-9.71849 0.992,-0.403 1.3795,-0.806 1.3795,-1.1935 0,-0.496 -0.496,-0.899 -1.488,-1.48801 -4.3555,-3.0845 -8.9281,-4.867 -11.5011,-9.42403 -0.6975,-1.10052 -1.1004,-1.68947 -1.5964,-1.68947 -0.2946,0 -0.7906,0.58895 -1.3796,1.68947 m -2.48,11.70254 c 0,-2.573 2.1856,-9.33101 3.7665,-9.33101 1.3951,0 3.7665,4.6655 3.7665,7.64151 0,2.7745 -2.3714,10.02851 -3.8594,10.02851 -1.302,0 -3.6736,-6.26201 -3.6736,-8.33901"
     id="path29"
     style="stroke-width:0.992001" />
  <path
     class="Note"
     d="m 1283.423,49.6 c -14.384,0 -23.312,6.060481 -23.312,13.391989 0,7.238507 6.1535,13.686563 22.2271,13.686563 17.6544,0 23.312,-6.138056 23.312,-13.686563 C 1305.6501,55.350481 1293.4516,49.6 1283.423,49.6 m -2.7745,2.480002 c 7.3471,0 13.2991,7.935979 13.2991,14.49249 0,5.456006 -3.3791,7.626058 -8.246,7.626058 -7.1455,0 -13.9811,-8.230553 -13.9811,-15.17457 0,-5.549006 3.8596,-6.943978 8.928,-6.943978"
     id="path30"
     style="stroke-width:0.992001" />
  <path
     class="Note"
     d="m 2026.273,223.2 c -14.384,0 -23.312,6.06048 -23.312,13.39199 0,7.23851 6.1535,13.68656 22.2271,13.68656 17.6544,0 23.312,-6.13805 23.312,-13.68656 0,-7.64151 -12.1985,-13.39199 -22.2271,-13.39199 m -2.7745,2.48 c 7.3471,0 13.2991,7.93598 13.2991,14.49249 0,5.45601 -3.3791,7.62606 -8.246,7.62606 -7.1455,0 -13.9811,-8.23055 -13.9811,-15.17457 0,-5.54901 3.8596,-6.94398 8.928,-6.94398"
     id="path31"
     style="stroke-width:0.992001" />
  <path
     class="Note"
     d="m 2032.5185,201.28295 c -2.0924,4.06103 -7.936,7.44003 -12.1055,9.51703 -0.6975,0.40301 -0.992,0.89901 -0.992,1.19351 0,0.403 0.2945,0.7905 0.992,1.085 3.968,2.18551 9.8271,6.26201 12.1055,10.02849 0.496,0.79052 0.8836,1.28652 1.1936,1.28652 0.496,0 0.8834,-0.496 1.2864,-1.28652 1.6896,-3.37898 8.7265,-7.84298 12.1056,-9.71849 0.992,-0.403 1.3795,-0.806 1.3795,-1.1935 0,-0.496 -0.496,-0.899 -1.488,-1.48801 -4.3555,-3.0845 -8.9281,-4.867 -11.5011,-9.42403 -0.6975,-1.10052 -1.1004,-1.68947 -1.5964,-1.68947 -0.2946,0 -0.7906,0.58895 -1.3796,1.68947 m -2.48,11.70254 c 0,-2.573 2.1856,-9.33101 3.7665,-9.33101 1.3951,0 3.7665,4.6655 3.7665,7.64151 0,2.7745 -2.3714,10.02851 -3.8594,10.02851 -1.302,0 -3.6736,-6.26201 -3.6736,-8.33901"
     id="path32"
     style="stroke-width:0.992001" />
  <path
     class="Note"
     d="m 827.37302,86.8 c -14.38401,0 -23.31202,6.060481 -23.31202,13.39199 0,7.23851 6.15351,13.68656 22.22707,13.68656 17.65445,0 23.31203,-6.13805 23.31203,-13.68656 C 849.6001,92.550481 837.40156,86.8 827.37302,86.8 m -2.77452,2.480003 c 7.34705,0 13.29906,7.935978 13.29906,14.492487 0,5.45601 -3.37905,7.62606 -8.24601,7.62606 -7.14548,0 -13.98106,-8.23055 -13.98106,-15.17457 0,-5.549006 3.85958,-6.943977 8.92801,-6.943977"
     id="path33"
     style="stroke-width:0.992001" />
  <path
     class="Note"
     d="m 1548.313,223.2 c -14.384,0 -23.312,6.06048 -23.312,13.39199 0,7.23851 6.1535,13.68656 22.2271,13.68656 17.6544,0 23.312,-6.13805 23.312,-13.68656 0,-7.64151 -12.1985,-13.39199 -22.2271,-13.39199 m -2.7745,2.48 c 7.3471,0 13.2991,7.93598 13.2991,14.49249 0,5.45601 -3.3791,7.62606 -8.246,7.62606 -7.1455,0 -13.9811,-8.23055 -13.9811,-15.17457 0,-5.54901 3.8596,-6.94398 8.928,-6.94398"
     id="path34"
     style="stroke-width:0.992001" />
  <path
     class="Note"
     d="m 1755.623,24.8 c -14.384,0 -23.312,6.060481 -23.312,13.391989 0,7.238507 6.1535,13.686563 22.2271,13.686563 17.6544,0 23.312,-6.138056 23.312,-13.686563 C 1777.8501,30.550481 1765.6516,24.8 1755.623,24.8 m -2.7745,2.480003 c 7.3471,0 13.2991,7.935978 13.2991,14.492489 0,5.456006 -3.3791,7.626058 -8.246,7.626058 -7.1455,0 -13.9811,-8.230553 -13.9811,-15.17457 0,-5.549006 3.8596,-6.943977 8.928,-6.943977"
     id="path35"
     style="stroke-width:0.992001" />
  <path
     class="Note"
     d="m 2233.583,0 c -14.384,0 -23.312,6.0604813 -23.312,13.391989 0,7.238507 6.1535,13.686563 22.2271,13.686563 17.6544,0 23.312,-6.138056 23.312,-13.686563 C 2255.8101,5.750481 2243.6116,0 2233.583,0 m -2.7745,2.4800025 c 7.3471,0 13.2991,7.9359785 13.2991,14.4924895 0,5.456006 -3.3791,7.626058 -8.246,7.626058 -7.1455,0 -13.9811,-8.230553 -13.9811,-15.1745703 0,-5.5490056 3.8596,-6.9439772 8.928,-6.9439772"
     id="path36"
     style="stroke-width:0.992001" />
  <path
     class="Note"
     d="m 626.30949,176.48295 c -2.09243,4.06103 -7.93598,7.44003 -12.10549,9.51703 -0.6975,0.40301 -0.992,0.89901 -0.992,1.19351 0,0.403 0.2945,0.7905 0.992,1.085 3.96801,2.18551 9.82706,6.26201 12.10549,10.02849 0.496,0.79052 0.88357,1.28652 1.19357,1.28652 0.496,0 0.88348,-0.496 1.28643,-1.28652 1.68958,-3.37898 8.72653,-7.84298 12.10559,-9.71849 0.992,-0.403 1.37947,-0.806 1.37947,-1.1935 0,-0.496 -0.496,-0.899 -1.488,-1.48801 -4.35548,-3.0845 -8.92801,-4.867 -11.50106,-9.42403 -0.69747,-1.10052 -1.10043,-1.68947 -1.59643,-1.68947 -0.29452,0 -0.79052,0.58895 -1.37957,1.68947 m -2.48,11.70254 c 0,-2.573 2.18557,-9.33101 3.76652,-9.33101 1.39506,0 3.76653,4.6655 3.76653,7.64151 0,2.7745 -2.37147,10.02851 -3.85948,10.02851 -1.302,0 -3.67357,-6.26201 -3.67357,-8.33901"
     id="path37"
     style="stroke-width:0.992001" />
  <path
     class="Clef"
     d="m 55.908562,108.82545 c -0.201475,-1.19348 0,-1.28653 0.588951,-1.89105 10.710536,-10.012965 18.848019,-22.614453 18.848019,-37.788993 0,-8.633484 -2.386952,-17.174017 -6.448006,-23.126519 -1.488002,-2.169506 -4.060955,-4.960005 -5.16148,-4.960005 -1.379477,0 -4.464005,2.589123 -6.448007,4.774501 -7.331483,8.122008 -9.718535,20.522021 -9.718535,30.844981 0,5.750531 0.697576,12.198537 1.395051,16.275066 0.186001,1.193477 0.294526,1.379477 -0.89905,2.371478 C 33.77454,107.13597 18.6,121.31841 18.6,141.35998 c 0,17.26702 11.811062,33.63501 36.115086,33.63501 2.278428,0 4.85148,-0.20148 6.835482,-0.60443 1.100526,-0.186 1.302001,-0.29452 1.488002,0.89895 1.193476,6.64949 2.681478,15.28307 2.681478,19.94855 0,14.67854 -9.92001,16.46097 -15.763492,16.46097 -5.363055,0 -7.951483,-1.58096 -7.951483,-2.88296 0,-0.682 0.898952,-0.992 3.177479,-1.674 3.084528,-0.89905 6.649482,-3.58053 6.649482,-9.33106 0,-5.456 -3.472004,-10.12148 -9.51696,-10.12148 -6.649582,0 -10.617586,5.25453 -10.617586,11.40801 0,6.448 3.859579,16.16654 18.848019,16.16654 6.649582,0 19.545595,-2.976 19.545595,-19.84002 0,-5.64201 -1.782527,-15.06602 -2.883053,-21.2195 -0.201475,-1.19357 -0.09295,-1.10052 1.286526,-1.68957 10.028535,-3.96801 16.678017,-12.40002 16.678017,-23.6065 0,-12.71006 -9.331059,-23.9165 -23.916549,-23.9165 -2.572953,0 -2.572953,0 -2.867478,-1.78253 l -2.480003,-14.38401 m 9.315485,-52.390055 c 3.270528,0 5.952006,2.681477 5.952006,8.137483 0,11.020536 -9.424009,19.948545 -17.251493,26.784027 -0.697475,0.604525 -1.100525,0.496 -1.302001,-0.790526 -0.387475,-2.572953 -0.58905,-5.952006 -0.58905,-9.129484 0,-15.468966 7.145582,-25.0015 13.190538,-25.0015 M 54.420561,123.99999 c 0.294525,1.89095 0.294525,1.78242 -1.488002,2.38695 -8.742008,2.976 -14.399489,10.80349 -14.399489,19.23554 0,8.92801 4.66548,15.28302 11.423486,17.56155 0.790526,0.29452 1.984002,0.60452 2.666003,0.60452 0.806001,0 1.193477,-0.496 1.193477,-1.10052 0,-0.69748 -0.790526,-0.992 -1.488002,-1.28653 -4.169479,-1.7825 -7.145482,-6.04501 -7.145482,-10.61751 0,-5.65751 3.874954,-9.92002 9.92001,-11.60956 1.596526,-0.38748 1.798001,-0.29443 1.984002,0.806 l 4.960005,29.55855 c 0.201475,1.08505 0.108525,1.08505 -1.379477,1.37958 -1.596526,0.31 -3.580528,0.496 -5.56453,0.496 -17.360018,0 -28.566554,-9.61001 -28.566554,-23.40507 0,-5.85901 0.992001,-13.68654 9.222534,-23.0175 5.952006,-6.64958 10.524536,-10.32306 15.190015,-14.08959 0.992001,-0.79043 1.178002,-0.69748 1.379477,0.40305 l 2.092527,12.69454 m 6.835482,15.77896 c -0.201475,-1.19347 -0.09295,-1.488 1.100526,-1.39495 8.028958,0.69748 14.67854,7.43998 14.67854,16.16649 0,6.26206 -3.766529,11.31501 -9.331059,14.08954 -1.193477,0.60453 -1.379477,0.60453 -1.580952,-0.58905 l -4.867055,-28.27203"
     id="path38"
     style="stroke-width:0.992001" />
  <polyline
     class="NoteLineSegment"
     fill="none"
     stroke="#000000"
     stroke-width="3.72"
     stroke-linejoin="miter"
     stroke-miterlimit="2"
     points="538.951,531.119 678.421,472.725"
     id="polyline38"
     transform="translate(-336.599,-310.60551)" />
  <polyline
     class="NoteLineSegment"
     fill="none"
     stroke="#000000"
     stroke-width="3.72"
     stroke-linejoin="miter"
     stroke-miterlimit="2"
     points="994.994,521.817 1134.46,430.054"
     id="polyline39"
     transform="translate(-336.599,-310.60551)" />
  <polyline
     class="NoteLineSegment"
     fill="none"
     stroke="#000000"
     stroke-width="3.72"
     stroke-linejoin="miter"
     stroke-miterlimit="2"
     points="1451.04,514.84 1590.51,398.051"
     id="polyline40"
     transform="translate(-336.599,-310.60551)" />
  <polyline
     class="NoteLineSegment"
     fill="none"
     stroke="#000000"
     stroke-width="3.72"
     stroke-linejoin="miter"
     stroke-miterlimit="2"
     points="1923.24,510.189 2052.79,386.209"
     id="polyline41"
     transform="translate(-336.599,-310.60551)" />
  <polyline
     class="NoteLineSegment"
     fill="none"
     stroke="#000000"
     stroke-width="3.72"
     stroke-linejoin="miter"
     stroke-miterlimit="2"
     points="2401.2,505.537 2530.75,366.06"
     id="polyline42"
     transform="translate(-336.599,-310.60551)" />
  <metadata
     id="metadata42">
    <rdf:RDF>
      <cc:Work
         rdf:about="">
        <dc:title>Flageolett-Violine</dc:title>
      </cc:Work>
    </rdf:RDF>
  </metadata>
</svg>
