<?xml version="1.0" encoding="UTF-8" standalone="no"?>
<svg
   width="132.09312mm"
   height="17.658613mm"
   viewBox="0 0 1872.186 250.27956"
   version="1.2"
   id="svg40"
   sodipodi:docname="Flageolett-Viola-1.svg"
   inkscape:version="1.4 (86a8ad7, 2024-10-11)"
   xmlns:inkscape="http://www.inkscape.org/namespaces/inkscape"
   xmlns:sodipodi="http://sodipodi.sourceforge.net/DTD/sodipodi-0.dtd"
   xmlns="http://www.w3.org/2000/svg"
   xmlns:svg="http://www.w3.org/2000/svg"
   xmlns:rdf="http://www.w3.org/1999/02/22-rdf-syntax-ns#"
   xmlns:cc="http://creativecommons.org/ns#"
   xmlns:dc="http://purl.org/dc/elements/1.1/">
  <defs
     id="defs40" />
  <sodipodi:namedview
     id="namedview40"
     pagecolor="#505050"
     bordercolor="#ffffff"
     borderopacity="1"
     inkscape:showpageshadow="0"
     inkscape:pageopacity="0"
     inkscape:pagecheckerboard="1"
     inkscape:deskcolor="#d1d1d1"
     inkscape:document-units="mm"
     inkscape:zoom="1.6173011"
     inkscape:cx="307.30208"
     inkscape:cy="485.06736"
     inkscape:window-width="3840"
     inkscape:window-height="2054"
     inkscape:window-x="-11"
     inkscape:window-y="-11"
     inkscape:window-maximized="1"
     inkscape:current-layer="svg40" />
  <title
     id="title1">Flageolett-Viola</title>
  <desc
     id="desc1">Generated by MuseScore Studio 4.5.2</desc>
  <polyline
     class="StaffLines"
     fill="none"
     stroke="#000000"
     stroke-width="3.22"
     stroke-linejoin="bevel"
     points="336.599,386.199 2208.78,386.199"
     id="polyline1"
     transform="translate(-336.599,-285.80451)" />
  <polyline
     class="StaffLines"
     fill="none"
     stroke="#000000"
     stroke-width="3.22"
     stroke-linejoin="bevel"
     points="336.599,410.999 2208.78,410.999"
     id="polyline2"
     transform="translate(-336.599,-285.80451)" />
  <polyline
     class="StaffLines"
     fill="none"
     stroke="#000000"
     stroke-width="3.22"
     stroke-linejoin="bevel"
     points="336.599,435.799 2208.78,435.799"
     id="polyline3"
     transform="translate(-336.599,-285.80451)" />
  <polyline
     class="StaffLines"
     fill="none"
     stroke="#000000"
     stroke-width="3.22"
     stroke-linejoin="bevel"
     points="336.599,460.599 2208.78,460.599"
     id="polyline4"
     transform="translate(-336.599,-285.80451)" />
  <polyline
     class="StaffLines"
     fill="none"
     stroke="#000000"
     stroke-width="3.22"
     stroke-linejoin="bevel"
     points="336.599,485.399 2208.78,485.399"
     id="polyline5"
     transform="translate(-336.599,-285.80451)" />
  <polyline
     class="BarLine"
     fill="none"
     stroke="#000000"
     stroke-width="3.97"
     stroke-linejoin="bevel"
     points="1840.9,384.587 1840.9,487.011"
     id="polyline6"
     transform="translate(-336.599,-285.80451)" />
  <polyline
     class="BarLine"
     fill="none"
     stroke="#000000"
     stroke-width="3.97"
     stroke-linejoin="bevel"
     points="795.547,384.587 795.547,487.011"
     id="polyline7"
     transform="translate(-336.599,-285.80451)" />
  <polyline
     class="BarLine"
     fill="none"
     stroke="#000000"
     stroke-width="3.97"
     stroke-linejoin="bevel"
     points="1492.45,384.587 1492.45,487.011"
     id="polyline8"
     transform="translate(-336.599,-285.80451)" />
  <polyline
     class="BarLine"
     fill="none"
     stroke="#000000"
     stroke-width="3.97"
     stroke-linejoin="bevel"
     points="1144,384.587 1144,487.011"
     id="polyline9"
     transform="translate(-336.599,-285.80451)" />
  <polyline
     class="BarLine"
     fill="none"
     stroke="#000000"
     stroke-width="3.97"
     stroke-linejoin="bevel"
     points="2206.8,384.587 2206.8,487.011"
     id="polyline10"
     transform="translate(-336.599,-285.80451)" />
  <path
     class="Accidental"
     d="m 1523.5945,228.85851 c 0.2945,0.40305 0.589,0.496 0.8835,0.496 0.31,0 0.6045,-0.20148 0.6045,-0.20148 2.976,-1.68948 5.3475,-4.35548 7.8276,-6.04505 8.8349,-6.15349 11.904,-12.19849 11.904,-16.771 0,-5.65755 -4.3556,-9.22251 -8.928,-9.51703 -1.674,0 -4.0611,0.79052 -5.4561,1.68948 -0.589,0.496 -1.674,1.37957 -2.17,1.37957 -0.2015,0 -0.31,0 -0.496,-0.0931 -0.6975,-0.29452 -1.1005,-0.992 -1.1005,-1.68948 0.1085,-2.18547 0.6975,-25.9935 0.6975,-27.9775 0,-1.08505 -0.899,-1.68957 -1.891,-1.68957 -1.3795,0 -2.976,0.992 -3.069,2.77452 0,0 0.403,56.65258 1.1935,57.64459 m 3.472,-8.83501 c 0,0 -0.2945,-5.95201 -0.2945,-9.92001 0,-1.581 0.093,-2.77451 0.186,-3.16201 0.6975,-1.984 4.6655,-4.867 6.9441,-4.867 2.8829,0 4.0764,3.2705 4.0764,5.7505 0,5.36302 -4.5724,10.71052 -8.835,13.39202 -0.3875,0.2015 -0.6975,0.2945 -0.992,0.2945 -0.8835,0 -1.085,-0.992 -1.085,-1.488"
     id="path10"
     style="stroke-width:0.992001" />
  <polyline
     class="LedgerLine"
     fill="none"
     stroke="#000000"
     stroke-width="3.97"
     stroke-linejoin="bevel"
     points="1669.03,361.399 1734.39,361.399"
     id="polyline11"
     transform="translate(-336.599,-285.80451)" />
  <polyline
     class="LedgerLine"
     fill="none"
     stroke="#000000"
     stroke-width="3.97"
     stroke-linejoin="bevel"
     points="1669.03,336.599 1734.39,336.599"
     id="polyline12"
     transform="translate(-336.599,-285.80451)" />
  <polyline
     class="LedgerLine"
     fill="none"
     stroke="#000000"
     stroke-width="3.97"
     stroke-linejoin="bevel"
     points="470.162,510.199 535.526,510.199"
     id="polyline13"
     transform="translate(-336.599,-285.80451)" />
  <polyline
     class="LedgerLine"
     fill="none"
     stroke="#000000"
     stroke-width="3.97"
     stroke-linejoin="bevel"
     points="818.611,510.199 883.975,510.199"
     id="polyline14"
     transform="translate(-336.599,-285.80451)" />
  <polyline
     class="LedgerLine"
     fill="none"
     stroke="#000000"
     stroke-width="3.97"
     stroke-linejoin="bevel"
     points="1167.06,510.199 1232.42,510.199"
     id="polyline15"
     transform="translate(-336.599,-285.80451)" />
  <polyline
     class="LedgerLine"
     fill="none"
     stroke="#000000"
     stroke-width="3.97"
     stroke-linejoin="bevel"
     points="1515.51,510.199 1580.87,510.199"
     id="polyline16"
     transform="translate(-336.599,-285.80451)" />
  <polyline
     class="LedgerLine"
     fill="none"
     stroke="#000000"
     stroke-width="3.97"
     stroke-linejoin="bevel"
     points="1320.58,361.399 1385.94,361.399"
     id="polyline17"
     transform="translate(-336.599,-285.80451)" />
  <polyline
     class="LedgerLine"
     fill="none"
     stroke="#000000"
     stroke-width="3.97"
     stroke-linejoin="bevel"
     points="1881.41,510.199 1946.78,510.199"
     id="polyline18"
     transform="translate(-336.599,-285.80451)" />
  <polyline
     class="LedgerLine"
     fill="none"
     stroke="#000000"
     stroke-width="3.97"
     stroke-linejoin="bevel"
     points="2034.93,311.798 2100.29,311.798"
     id="polyline19"
     transform="translate(-336.599,-285.80451)" />
  <polyline
     class="LedgerLine"
     fill="none"
     stroke="#000000"
     stroke-width="3.97"
     stroke-linejoin="bevel"
     points="2034.93,336.599 2100.29,336.599"
     id="polyline20"
     transform="translate(-336.599,-285.80451)" />
  <polyline
     class="LedgerLine"
     fill="none"
     stroke="#000000"
     stroke-width="3.97"
     stroke-linejoin="bevel"
     points="2034.93,361.399 2100.29,361.399"
     id="polyline21"
     transform="translate(-336.599,-285.80451)" />
  <path
     class="Note"
     d="m 1017.213,49.601 c -14.384,0 -23.312,6.060481 -23.312,13.391989 0,7.238507 6.1535,13.686563 22.2271,13.686563 17.6544,0 23.312,-6.138056 23.312,-13.686563 0,-7.641508 -12.1985,-13.391989 -22.2271,-13.391989 m -2.7745,2.480002 c 7.3471,0 13.2991,7.935979 13.2991,14.49249 0,5.456006 -3.3791,7.626058 -8.246,7.626058 -7.1455,0 -13.9811,-8.230553 -13.9811,-15.17457 0,-5.549006 3.8596,-6.943978 8.928,-6.943978"
     id="path21"
     style="stroke-width:0.992001" />
  <path
     class="Note"
     d="m 869.93849,188.88395 c -2.09243,4.06103 -7.93598,7.44003 -12.10549,9.51703 -0.6975,0.40301 -0.992,0.89901 -0.992,1.19351 0,0.403 0.2945,0.7905 0.992,1.085 3.968,2.18551 9.82706,6.26201 12.10549,10.02849 0.496,0.79052 0.88357,1.28652 1.19357,1.28652 0.496,0 0.88348,-0.496 1.28643,-1.28652 1.68958,-3.37898 8.72653,-7.84298 12.10559,-9.71849 0.992,-0.403 1.37947,-0.806 1.37947,-1.1935 0,-0.496 -0.496,-0.899 -1.488,-1.48801 -4.35548,-3.0845 -8.92801,-4.867 -11.50106,-9.42403 -0.69747,-1.10052 -1.10043,-1.68947 -1.59643,-1.68947 -0.29452,0 -0.79052,0.58895 -1.37957,1.68947 m -2.48,11.70254 c 0,-2.573 2.18557,-9.33101 3.76652,-9.33101 1.39506,0 3.76653,4.6655 3.76653,7.64151 0,2.7745 -2.37147,10.02851 -3.85948,10.02851 -1.302,0 -3.67357,-6.26201 -3.67357,-8.33901"
     id="path22"
     style="stroke-width:0.992001" />
  <path
     class="Note"
     d="m 1212.143,223.201 c -14.384,0 -23.312,6.06048 -23.312,13.39199 0,7.23851 6.1535,13.68656 22.2271,13.68656 17.6544,0 23.312,-6.13805 23.312,-13.68656 0,-7.64151 -12.1985,-13.39199 -22.2271,-13.39199 m -2.7745,2.48 c 7.3471,0 13.2991,7.93598 13.2991,14.49249 0,5.45601 -3.3791,7.62606 -8.246,7.62606 -7.1455,0 -13.9811,-8.23055 -13.9811,-15.17457 0,-5.54901 3.8596,-6.94398 8.928,-6.94398"
     id="path23"
     style="stroke-width:0.992001" />
  <path
     class="Note"
     d="m 1218.3885,201.28395 c -2.0924,4.06103 -7.936,7.44003 -12.1055,9.51703 -0.6975,0.40301 -0.992,0.89901 -0.992,1.19351 0,0.403 0.2945,0.7905 0.992,1.085 3.968,2.18551 9.8271,6.26201 12.1055,10.02849 0.496,0.79052 0.8836,1.28652 1.1936,1.28652 0.496,0 0.8834,-0.496 1.2864,-1.28652 1.6896,-3.37898 8.7265,-7.84298 12.1056,-9.71849 0.992,-0.403 1.3795,-0.806 1.3795,-1.1935 0,-0.496 -0.496,-0.899 -1.488,-1.48801 -4.3555,-3.0845 -8.9281,-4.867 -11.5011,-9.42403 -0.6975,-1.10052 -1.1004,-1.68947 -1.5964,-1.68947 -0.2946,0 -0.7906,0.58895 -1.3796,1.68947 m -2.48,11.70254 c 0,-2.573 2.1856,-9.33101 3.7665,-9.33101 1.3951,0 3.7665,4.6655 3.7665,7.64151 0,2.7745 -2.3714,10.02851 -3.8594,10.02851 -1.302,0 -3.6736,-6.26201 -3.6736,-8.33901"
     id="path24"
     style="stroke-width:0.992001" />
  <path
     class="Note"
     d="m 1365.663,24.801 c -14.384,0 -23.312,6.060481 -23.312,13.391989 0,7.238507 6.1535,13.686563 22.2271,13.686563 17.6544,0 23.312,-6.138056 23.312,-13.686563 0,-7.641508 -12.1985,-13.391989 -22.2271,-13.391989 m -2.7745,2.480002 c 7.3471,0 13.2991,7.935979 13.2991,14.49249 0,5.456006 -3.3791,7.626058 -8.246,7.626058 -7.1455,0 -13.9811,-8.230553 -13.9811,-15.17457 0,-5.549006 3.8596,-6.943978 8.928,-6.943978"
     id="path25"
     style="stroke-width:0.992001" />
  <path
     class="Note"
     d="m 173.04149,139.28395 c -2.09243,4.06103 -7.93598,7.44003 -12.10549,9.51703 -0.6975,0.40301 -0.992,0.89901 -0.992,1.19351 0,0.403 0.2945,0.7905 0.992,1.085 3.96801,2.18551 9.82706,6.26201 12.10549,10.02849 0.496,0.79052 0.88357,1.28652 1.19357,1.28652 0.496,0 0.88348,-0.496 1.28643,-1.28652 1.68958,-3.37898 8.72653,-7.84298 12.10559,-9.71849 0.992,-0.403 1.37947,-0.806 1.37947,-1.1935 0,-0.496 -0.496,-0.899 -1.488,-1.48801 -4.35548,-3.0845 -8.92801,-4.867 -11.50106,-9.42403 -0.69747,-1.10052 -1.10043,-1.68947 -1.59643,-1.68947 -0.29452,0 -0.79052,0.58895 -1.37957,1.68947 m -2.48,11.70254 c 0,-2.573 2.18557,-9.33101 3.76652,-9.33101 1.39506,0 3.76653,4.6655 3.76653,7.64151 0,2.7745 -2.37147,10.02851 -3.85948,10.02851 -1.302,0 -3.67357,-6.26201 -3.67357,-8.33901"
     id="path26"
     style="stroke-width:0.992001" />
  <path
     class="Note"
     d="M 320.31202,136.401 C 305.92801,136.401 297,142.46148 297,149.79299 c 0,7.23851 6.15351,13.68656 22.22707,13.68656 17.65445,0 23.31203,-6.13805 23.31203,-13.68656 0,-7.64151 -12.19854,-13.39199 -22.22708,-13.39199 m -2.77452,2.48 c 7.34705,0 13.29906,7.93598 13.29906,14.49249 0,5.45601 -3.37905,7.62606 -8.24601,7.62606 -7.14548,0 -13.98106,-8.23055 -13.98106,-15.17457 0,-5.54901 3.85958,-6.94398 8.92801,-6.94398"
     id="path27"
     style="stroke-width:0.992001" />
  <path
     class="Note"
     d="m 1578.043,223.201 c -14.384,0 -23.312,6.06048 -23.312,13.39199 0,7.23851 6.1535,13.68656 22.2271,13.68656 17.6544,0 23.312,-6.13805 23.312,-13.68656 0,-7.64151 -12.1985,-13.39199 -22.2271,-13.39199 m -2.7745,2.48 c 7.3471,0 13.2991,7.93598 13.2991,14.49249 0,5.45601 -3.3791,7.62606 -8.246,7.62606 -7.1455,0 -13.9811,-8.23055 -13.9811,-15.17457 0,-5.54901 3.8596,-6.94398 8.928,-6.94398"
     id="path28"
     style="stroke-width:0.992001" />
  <path
     class="Note"
     d="m 1584.2885,201.28395 c -2.0924,4.06103 -7.936,7.44003 -12.1055,9.51703 -0.6975,0.40301 -0.992,0.89901 -0.992,1.19351 0,0.403 0.2945,0.7905 0.992,1.085 3.968,2.18551 9.8271,6.26201 12.1055,10.02849 0.496,0.79052 0.8836,1.28652 1.1936,1.28652 0.496,0 0.8834,-0.496 1.2864,-1.28652 1.6896,-3.37898 8.7265,-7.84298 12.1056,-9.71849 0.992,-0.403 1.3795,-0.806 1.3795,-1.1935 0,-0.496 -0.496,-0.899 -1.488,-1.48801 -4.3555,-3.0845 -8.9281,-4.867 -11.5011,-9.42403 -0.6975,-1.10052 -1.1004,-1.68947 -1.5964,-1.68947 -0.2946,0 -0.7906,0.58895 -1.3796,1.68947 m -2.48,11.70254 c 0,-2.573 2.1856,-9.33101 3.7665,-9.33101 1.3951,0 3.7665,4.6655 3.7665,7.64151 0,2.7745 -2.3714,10.02851 -3.8594,10.02851 -1.302,0 -3.6736,-6.26201 -3.6736,-8.33901"
     id="path29"
     style="stroke-width:0.992001" />
  <path
     class="Note"
     d="m 166.79502,223.201 c -14.38401,0 -23.31202,6.06048 -23.31202,13.39199 0,7.23851 6.15351,13.68656 22.22707,13.68656 17.65445,0 23.31203,-6.13805 23.31203,-13.68656 0,-7.64151 -12.19854,-13.39199 -22.22708,-13.39199 m -2.77452,2.48 c 7.34705,0 13.29906,7.93598 13.29906,14.49249 0,5.45601 -3.37905,7.62606 -8.24601,7.62606 -7.14548,0 -13.98106,-8.23055 -13.98106,-15.17457 0,-5.54901 3.85958,-6.94398 8.92801,-6.94398"
     id="path30"
     style="stroke-width:0.992001" />
  <path
     class="Note"
     d="m 515.24402,223.201 c -14.38401,0 -23.31202,6.06048 -23.31202,13.39199 0,7.23851 6.15351,13.68656 22.22707,13.68656 17.65445,0 23.31203,-6.13805 23.31203,-13.68656 0,-7.64151 -12.19854,-13.39199 -22.22708,-13.39199 m -2.77452,2.48 c 7.34705,0 13.29906,7.93598 13.29906,14.49249 0,5.45601 -3.37905,7.62606 -8.24601,7.62606 -7.14548,0 -13.98106,-8.23055 -13.98106,-15.17457 0,-5.54901 3.85958,-6.94398 8.92801,-6.94398"
     id="path31"
     style="stroke-width:0.992001" />
  <path
     class="Note"
     d="m 521.49049,176.48395 c -2.09243,4.06103 -7.93598,7.44003 -12.10549,9.51703 -0.6975,0.40301 -0.992,0.89901 -0.992,1.19351 0,0.403 0.2945,0.7905 0.992,1.085 3.968,2.18551 9.82706,6.26201 12.10549,10.02849 0.496,0.79052 0.88357,1.28652 1.19357,1.28652 0.496,0 0.88348,-0.496 1.28643,-1.28652 1.68958,-3.37898 8.72653,-7.84298 12.10559,-9.71849 0.992,-0.403 1.37947,-0.806 1.37947,-1.1935 0,-0.496 -0.496,-0.899 -1.488,-1.48801 -4.35548,-3.0845 -8.92801,-4.867 -11.50106,-9.42403 -0.69747,-1.10052 -1.10043,-1.68947 -1.59643,-1.68947 -0.29452,0 -0.79052,0.58895 -1.37957,1.68947 m -2.48,11.70254 c 0,-2.573 2.18557,-9.33101 3.76652,-9.33101 1.39506,0 3.76653,4.6655 3.76653,7.64151 0,2.7745 -2.37147,10.02851 -3.85948,10.02851 -1.302,0 -3.67357,-6.26201 -3.67357,-8.33901"
     id="path32"
     style="stroke-width:0.992001" />
  <path
     class="Note"
     d="m 668.76102,86.801 c -14.38401,0 -23.31202,6.060481 -23.31202,13.39199 0,7.23851 6.15351,13.68656 22.22707,13.68656 17.65445,0 23.31203,-6.13805 23.31203,-13.68656 0,-7.641509 -12.19854,-13.39199 -22.22708,-13.39199 m -2.77452,2.480002 c 7.34705,0 13.29906,7.935979 13.29906,14.492488 0,5.45601 -3.37905,7.62606 -8.24601,7.62606 -7.14548,0 -13.98106,-8.23055 -13.98106,-15.17457 0,-5.549006 3.85958,-6.943978 8.92801,-6.943978"
     id="path33"
     style="stroke-width:0.992001" />
  <path
     class="Note"
     d="m 1731.563,0 c -14.384,0 -23.312,6.0604813 -23.312,13.391989 0,7.238507 6.1535,13.686563 22.2271,13.686563 17.6544,0 23.312,-6.138056 23.312,-13.686563 C 1753.7901,5.750481 1741.5916,0 1731.563,0 m -2.7745,2.4800025 c 7.3471,0 13.2991,7.9359785 13.2991,14.4924895 0,5.456006 -3.3791,7.626058 -8.246,7.626058 -7.1455,0 -13.9811,-8.230553 -13.9811,-15.1745703 0,-5.5490056 3.8596,-6.9439772 8.928,-6.9439772"
     id="path34"
     style="stroke-width:0.992001" />
  <path
     class="Note"
     d="m 863.69302,223.201 c -14.38401,0 -23.31202,6.06048 -23.31202,13.39199 0,7.23851 6.15351,13.68656 22.22707,13.68656 17.65445,0 23.31203,-6.13805 23.31203,-13.68656 0,-7.64151 -12.19854,-13.39199 -22.22708,-13.39199 m -2.77452,2.48 c 7.34705,0 13.29906,7.93598 13.29906,14.49249 0,5.45601 -3.37905,7.62606 -8.24601,7.62606 -7.14548,0 -13.98106,-8.23055 -13.98106,-15.17457 0,-5.54901 3.85958,-6.94398 8.92801,-6.94398"
     id="path35"
     style="stroke-width:0.992001" />
  <path
     class="Clef"
     d="m 41.416023,102.17697 c 0,-1.39506 -0.697476,-2.07706 -2.076952,-2.07706 h -0.108525 c -1.379477,0 -2.077052,0.682 -2.077052,2.07706 v 95.63504 c 0,1.39505 0.697575,2.07705 2.077052,2.07705 h 0.108525 c 1.379476,0 2.076952,-0.682 2.076952,-2.07705 v -43.44652 c 0,-0.806 0.496001,-0.69749 0.899051,-0.60449 2.572953,0.69749 6.742432,3.2705 8.819484,14.49256 0.31,1.58095 0.898951,2.48 1.890952,2.48 1.085051,0 1.581051,-0.992 2.077052,-2.68158 1.302001,-4.37095 3.580528,-9.22248 10.617486,-9.22248 6.448006,0 8.230533,6.33953 8.230533,19.34407 0,12.98896 -2.278527,18.84802 -10.509061,18.84802 -1.394951,0 -8.432008,-0.60453 -8.432008,-2.68158 0,-0.496 1.581051,-1.08495 2.681577,-1.488 1.984002,-0.69748 3.968004,-2.68148 3.968004,-6.44801 0,-4.37095 -2.883052,-6.85096 -6.742532,-6.85096 -4.278004,0 -7.641482,2.88296 -7.641482,8.13749 0,6.24653 5.456005,12.50853 17.251492,12.50853 16.274967,0 23.420549,-11.40801 23.420549,-21.73107 0,-13.68644 -7.548533,-23.21899 -20.739071,-23.21899 -2.867478,0 -4.75853,0.496 -6.044956,0.899 -0.992001,0.2945 -1.984002,0.496 -2.883053,-0.10851 -1.379477,-0.88349 -3.564954,-4.061 -3.564954,-6.045 0,-1.984 2.185477,-5.16151 3.564954,-6.04501 0.899051,-0.6045 1.891052,-0.403 2.883053,-0.1085 1.286426,0.403 3.177478,0.899 6.044956,0.899 13.190538,0 20.739071,-9.53256 20.739071,-23.219 0,-10.32306 -7.145582,-21.731067 -23.420549,-21.731067 -11.795487,0 -17.251492,6.262007 -17.251492,12.508537 0,5.25453 3.363478,8.13748 7.641482,8.13748 3.85948,0 6.742532,-2.48 6.742532,-6.85095 0,-3.76653 -1.984002,-5.75053 -3.968004,-6.44801 -1.100526,-0.40305 -2.681577,-0.992 -2.681577,-1.488 0,-2.07705 7.037057,-2.68158 8.432008,-2.68158 8.230534,0 10.509061,5.85906 10.509061,18.84802 0,13.00454 -1.782527,19.34407 -8.230533,19.34407 -7.036958,0 -9.315485,-4.85153 -10.617486,-9.22248 -0.496001,-1.68958 -0.992001,-2.68158 -2.077052,-2.68158 -0.992001,0 -1.580952,0.89905 -1.890952,2.48 -2.077052,11.22206 -6.246531,13.79506 -8.819484,14.49256 -0.40305,0.093 -0.899051,0.20151 -0.899051,-0.6045 v -43.44651 m -20.739021,-2.07706 c -1.379501,0 -2.077002,0.682 -2.077002,2.07706 v 95.63504 c 0,1.39505 0.697501,2.07705 2.077002,2.07705 h 8.540484 c 1.379576,0 2.077052,-0.682 2.077052,-2.07705 v -95.63504 c 0,-1.39506 -0.697476,-2.07706 -2.077052,-2.07706 h -8.540484"
     id="path36"
     style="stroke-width:0.992001" />
  <polyline
     class="NoteLineSegment"
     fill="none"
     stroke="#000000"
     stroke-width="3.72"
     stroke-linejoin="miter"
     stroke-miterlimit="2"
     points="541.726,500.615 627.399,452.174"
     id="polyline36"
     transform="translate(-336.599,-285.80451)" />
  <polyline
     class="NoteLineSegment"
     fill="none"
     stroke="#000000"
     stroke-width="3.72"
     stroke-linejoin="miter"
     stroke-miterlimit="2"
     points="890.175,488.052 975.848,411.931"
     id="polyline37"
     transform="translate(-336.599,-285.80451)" />
  <polyline
     class="NoteLineSegment"
     fill="none"
     stroke="#000000"
     stroke-width="3.72"
     stroke-linejoin="miter"
     stroke-miterlimit="2"
     points="1238.62,478.63 1314.38,392.967"
     id="polyline38"
     transform="translate(-336.599,-285.80451)" />
  <polyline
     class="NoteLineSegment"
     fill="none"
     stroke="#000000"
     stroke-width="3.72"
     stroke-linejoin="miter"
     stroke-miterlimit="2"
     points="1587.07,472.349 1662.83,374.448"
     id="polyline39"
     transform="translate(-336.599,-285.80451)" />
  <polyline
     class="NoteLineSegment"
     fill="none"
     stroke="#000000"
     stroke-width="3.72"
     stroke-linejoin="miter"
     stroke-miterlimit="2"
     points="1952.98,466.068 2028.73,355.929"
     id="polyline40"
     transform="translate(-336.599,-285.80451)" />
  <metadata
     id="metadata40">
    <rdf:RDF>
      <cc:Work
         rdf:about="">
        <dc:title>Flageolett-Viola</dc:title>
      </cc:Work>
    </rdf:RDF>
  </metadata>
</svg>
