<?xml version="1.0" encoding="UTF-8" standalone="no"?>
<svg
   height="49.649269pt"
   version="1.1"
   viewBox="0 0 149.82401 49.649268"
   width="149.82401pt"
   id="svg9"
   sodipodi:docname="pedalstellungen-Seite004.svg"
   inkscape:version="1.4 (86a8ad7, 2024-10-11)"
   xmlns:inkscape="http://www.inkscape.org/namespaces/inkscape"
   xmlns:sodipodi="http://sodipodi.sourceforge.net/DTD/sodipodi-0.dtd"
   xmlns="http://www.w3.org/2000/svg"
   xmlns:svg="http://www.w3.org/2000/svg">
  <sodipodi:namedview
     id="namedview9"
     pagecolor="#505050"
     bordercolor="#ffffff"
     borderopacity="1"
     inkscape:showpageshadow="0"
     inkscape:pageopacity="0"
     inkscape:pagecheckerboard="1"
     inkscape:deskcolor="#d1d1d1"
     inkscape:document-units="pt"
     inkscape:zoom="16.236573"
     inkscape:cx="98.296605"
     inkscape:cy="33.165866"
     inkscape:window-width="3840"
     inkscape:window-height="2054"
     inkscape:window-x="3829"
     inkscape:window-y="-11"
     inkscape:window-maximized="1"
     inkscape:current-layer="Hintergrund" />
  <defs
     id="defs1" />
  <g
     id="Hintergrund"
     inkscape:groupmode="layer"
     inkscape:label="Hintergrund"
     transform="translate(-11.3386,-3.45523)">
    <path
       d="M 4.41788,8.58994 V 7.80469 C 4.02338,8.42194 3.44331,8.73056 2.67769,8.73056 2.18156,8.73056 1.7255,8.59388 1.3095,8.3205 0.8935,8.047 0.57125,7.66512 0.34275,7.17487 0.11425,6.68462 0,6.12112 0,5.48438 0,4.86337 0.1035,4.29994 0.3105,3.79406 0.5175,3.28819 0.828,2.9005 1.242,2.631 1.65612,2.36138 2.11906,2.22656 2.63081,2.22656 c 0.375,0 0.70894,0.07913 1.00181,0.23738 0.293,0.15825 0.53132,0.36431 0.71494,0.61819 V 0 H 5.39644 V 8.58994 Z M 1.08394,5.48438 c 0,0.79687 0.16793,1.39262 0.50381,1.78725 0.336,0.39449 0.7325,0.59174 1.1895,0.59174 0.461,0 0.85262,-0.18843 1.17488,-0.56531 C 4.27438,6.92106 4.4355,6.34581 4.4355,5.57231 4.4355,4.72081 4.27144,4.09587 3.94331,3.6975 3.61519,3.299 3.21088,3.09975 2.73037,3.09975 2.26162,3.09975 1.87,3.29119 1.5555,3.67406 1.24113,4.05681 1.08394,4.66025 1.08394,5.48438 Z"
       id="Text28+U0"
       style="fill:#171615;fill-rule:evenodd;stroke:none"
       transform="translate(20.5972,3.60167)" />
    <path
       d="M 4.38281,4.08413 5.41988,4.21875 C 5.30662,4.93363 5.01656,5.49325 4.54969,5.89762 4.08294,6.30187 3.50975,6.504 2.83012,6.504 1.9785,6.504 1.29387,6.22569 0.77625,5.66906 0.25875,5.11244 0,4.31456 0,3.27544 0,2.60356 0.111313,2.01569 0.333937,1.51181 0.556688,1.00794 0.895563,0.63 1.35056,0.378 1.80569,0.126 2.30081,0 2.83594,0 3.51169,0 4.06438,0.170937 4.494,0.512812 4.92375,0.854563 5.19919,1.33988 5.32031,1.96875 L 4.29488,2.127 C 4.19725,1.709 4.02438,1.39456 3.77625,1.18369 3.52825,0.972688 3.2285,0.867188 2.877,0.867188 c -0.53125,0 -0.96294,0.190442 -1.29506,0.571312 -0.332,0.38087 -0.498,0.98344 -0.498,1.80769 0,0.83587 0.16012,1.44331 0.48037,1.82231 0.32038,0.37888 0.73838,0.56831 1.254,0.56831 0.41413,0 0.75981,-0.12693 1.03706,-0.38081 C 4.13275,5.002 4.30856,4.61137 4.38281,4.08413 Z"
       id="Text29+U0"
       style="fill:#171615;fill-rule:evenodd;stroke:none"
       transform="translate(38.2305,15.1826)" />
    <path
       d="M 0,8.58994 V 0 H 1.05469 V 3.08213 C 1.54681,2.51175 2.16787,2.22656 2.91787,2.22656 c 0.461,0 0.86138,0.09088 1.20113,0.27263 0.33987,0.18162 0.58306,0.43262 0.72956,0.753 0.1465,0.32025 0.21975,0.78506 0.21975,1.39443 V 8.58994 H 4.01363 V 4.64662 C 4.01363,4.11925 3.89938,3.73544 3.67087,3.49519 3.44238,3.25494 3.11912,3.13481 2.70113,3.13481 2.38862,3.13481 2.09469,3.21588 1.81931,3.378 1.54394,3.54013 1.34763,3.75987 1.23037,4.03725 1.11325,4.3145 1.05469,4.69731 1.05469,5.18569 v 3.40425 z"
       id="Text30+U0"
       style="fill:#171615;fill-rule:evenodd;stroke:none"
       transform="translate(56.9781,37.6174)" />
    <path
       d="M 4.61137,4.35938 5.70113,4.49419 C 5.52925,5.13094 5.21088,5.62512 4.746,5.97675 4.28125,6.32825 3.6875,6.504 2.96475,6.504 2.05462,6.504 1.33294,6.22375 0.799688,5.66325 0.266562,5.10263 0,4.31644 0,3.30469 0,2.25781 0.2695,1.44531 0.8085,0.867188 1.34763,0.289063 2.04688,0 2.90625,0 c 0.832,0 1.51169,0.28325 2.03906,0.84975 0.52738,0.56638 0.79106,1.36325 0.79106,2.39062 0,0.0625 -0.00199,0.15625 -0.00599,0.28125 H 1.08975 c 0.03912,0.6835 0.2325,1.20694 0.58012,1.57032 0.34763,0.36325 0.78125,0.54487 1.30088,0.54487 0.38663,0 0.71663,-0.10156 0.99,-0.30468 C 4.23425,5.129 4.45112,4.80475 4.61137,4.35938 Z M 1.14844,2.65444 H 4.623 C 4.57613,2.13094 4.44331,1.73831 4.22456,1.47656 3.88869,1.07031 3.45313,0.867188 2.91787,0.867188 2.4335,0.867188 2.02625,1.02931 1.69613,1.35356 1.36612,1.67781 1.18356,2.11144 1.14844,2.65444 Z"
       id="Text31+U0"
       style="fill:#171615;fill-rule:evenodd;stroke:none"
       transform="translate(92.6265,5.82823)" />
    <path
       d="M 0.931688,8.73638 V 3.33394 H 0 V 2.51362 H 0.931688 V 1.85156 C 0.931688,1.43356 0.96875,1.123 1.04287,0.919875 1.1445,0.6465 1.32325,0.424875 1.57912,0.255 1.835,0.085 2.19337,0 2.65425,0 2.95113,0 3.27925,0.0351875 3.63863,0.105563 L 3.48037,1.02544 C 3.26162,0.986313 3.05462,0.96675 2.85938,0.96675 2.539,0.96675 2.31237,1.03512 2.1795,1.17188 2.04675,1.30863 1.98037,1.5645 1.98037,1.9395 V 2.51362 H 3.19331 V 3.33394 H 1.98037 v 5.40244 z"
       id="Text32+U0"
       style="fill:#171615;fill-rule:evenodd;stroke:none"
       transform="translate(110.44,3.45523)" />
    <path
       d="M 0.210938,6.879 1.23619,7.03144 c 0.043,0.31637 0.16219,0.54681 0.35756,0.69131 0.26162,0.19537 0.619,0.29306 1.07212,0.29306 0.48838,0 0.86538,-0.09769 1.131,-0.29306 C 4.0625,7.5275 4.24219,7.25406 4.33594,6.90244 4.39056,6.68756 4.41594,6.23637 4.41206,5.54887 3.95106,6.09187 3.37681,6.36338 2.68931,6.36338 1.83394,6.36338 1.17187,6.05481 0.703125,5.43769 0.234375,4.82044 0,4.08019 0,3.21694 0,2.62319 0.107375,2.07531 0.322125,1.57331 0.537,1.07131 0.8485,0.683625 1.25663,0.41025 1.66488,0.13675 2.14444,0 2.69531,0 3.42969,0 4.03513,0.296875 4.51163,0.890625 v -0.75 H 5.48438 V 5.51963 c 0,0.96874 -0.09869,1.65524 -0.29607,2.0595 C 4.99106,7.9835 4.67856,8.30288 4.25081,8.53725 3.82319,8.77163 3.29688,8.88881 2.67188,8.88881 1.92963,8.88881 1.33,8.72181 0.873,8.38781 0.416,8.05381 0.195313,7.55088 0.210938,6.879 Z M 1.08394,3.14063 c 0,0.81649 0.16206,1.41225 0.48618,1.78725 0.32426,0.375 0.73057,0.5625 1.21894,0.5625 0.48438,0 0.89063,-0.1865 1.21875,-0.5595 C 4.33594,4.55775 4.5,3.97275 4.5,3.17588 4.5,2.41412 4.331,1.83994 3.993,1.45331 3.65512,1.06656 3.24794,0.873188 2.77144,0.873188 2.30269,0.873188 1.90425,1.06363 1.57612,1.4445 1.248,1.82525 1.08394,2.39063 1.08394,3.14063 Z"
       id="Text33+U0"
       style="fill:#171615;fill-rule:evenodd;stroke:none"
       transform="translate(127.156,5.82823)" />
    <path
       d="M 4.41788,5.59575 C 4.02725,5.92775 3.65125,6.16213 3.28987,6.29887 2.92862,6.43563 2.54094,6.504 2.12681,6.504 1.44331,6.504 0.917938,6.337 0.550687,6.003 0.183563,5.669 0,5.24225 0,4.72275 0,4.418 0.0693125,4.13969 0.207938,3.88781 0.346562,3.63581 0.528188,3.43369 0.752812,3.28144 0.977437,3.12906 1.23037,3.01381 1.51162,2.93569 1.71862,2.88094 2.03112,2.82819 2.44912,2.77744 3.30075,2.67581 3.92769,2.55469 4.32994,2.41406 c 0.004,-0.1445 0.006,-0.23625 0.006,-0.27525 0,-0.42975 -0.09963,-0.7325 -0.29888,-0.90825 C 3.76756,0.992312 3.36719,0.873188 2.83594,0.873188 2.33981,0.873188 1.97356,0.960125 1.73719,1.134 1.50094,1.30775 1.32612,1.61531 1.21275,2.05669 L 0.1815,1.91606 C 0.27525,1.47469 0.429563,1.11825 0.644437,0.84675 0.859313,0.57525 1.16987,0.36625 1.57612,0.21975 1.98237,0.07325 2.45306,0 2.98819,0 3.51944,0 3.95106,0.0625 4.28306,0.1875 4.61519,0.3125 4.85938,0.46975 5.01563,0.65925 5.17188,0.84875 5.28125,1.088 5.34375,1.377 5.37887,1.55675 5.39644,1.881 5.39644,2.34975 V 3.756 c 0,0.98037 0.02244,1.6005 0.06731,1.86037 0.045,0.25975 0.13388,0.50875 0.26663,0.74701 H 4.62881 C 4.51944,6.14463 4.44913,5.88875 4.41788,5.59575 Z M 4.32994,3.24037 C 3.94719,3.39662 3.373,3.52944 2.60737,3.63881 2.17375,3.70131 1.86706,3.77162 1.68731,3.84975 1.50769,3.92788 1.36906,4.04213 1.27144,4.1925 1.17381,4.34288 1.125,4.50988 1.125,4.6935 c 0,0.28125 0.10644,0.51563 0.31931,0.70313 0.21288,0.1875 0.52438,0.28125 0.9345,0.28125 0.40625,0 0.76757,-0.08888 1.08394,-0.26663 C 3.77925,5.2335 4.01169,4.99031 4.16006,4.68169 4.27331,4.44344 4.32994,4.09188 4.32994,3.627 Z"
       id="Text34+U0"
       style="fill:#171615;fill-rule:evenodd;stroke:none"
       transform="translate(143.928,5.82823)" />
    <path
       d="M 0,0 H 149.824"
       style="stroke:#859cbe;stroke-width:2.83465;stroke-linecap:butt;stroke-linejoin:miter;stroke-dasharray:none"
       transform="translate(11.3386,29.6762)"
       id="path1" />
    <path
       d="M 0,0 H 29.9244"
       style="stroke:#859cbe;stroke-width:2.83465;stroke-linecap:butt;stroke-linejoin:miter;stroke-dasharray:none"
       transform="rotate(90,31.8312,46.5074)"
       id="path2" />
    <path
       d="M 0,0 H 23.3115"
       style="stroke:#859cbe;stroke-width:2.83465;stroke-linecap:butt;stroke-linejoin:miter;stroke-dasharray:none"
       transform="rotate(90,3.15465,21.32565)"
       id="path3" />
    <path
       d="M 0,0 H 23.3115"
       style="stroke:#859cbe;stroke-width:2.83465;stroke-linecap:butt;stroke-linejoin:miter;stroke-dasharray:none"
       transform="rotate(90,5.8476,35.6406)"
       id="path4" />
    <path
       d="M 0,0 H 23.3115"
       style="stroke:#859cbe;stroke-width:2.83465;stroke-linecap:butt;stroke-linejoin:miter;stroke-dasharray:none"
       transform="rotate(90,25.690135,32.805965)"
       id="path5" />
    <path
       d="M 0,0 H 23.3115"
       style="stroke:#859cbe;stroke-width:2.83465;stroke-linecap:butt;stroke-linejoin:miter;stroke-dasharray:none"
       transform="rotate(90,38.44605,56.90045)"
       id="path6" />
    <path
       d="M 0,0 H 23.3115"
       style="stroke:#859cbe;stroke-width:2.83465;stroke-linecap:butt;stroke-linejoin:miter;stroke-dasharray:none"
       transform="rotate(90,46.9498,65.4042)"
       id="path7" />
    <path
       d="M 0,0 H 23.3115"
       style="stroke:#859cbe;stroke-width:2.83465;stroke-linecap:butt;stroke-linejoin:miter;stroke-dasharray:none"
       transform="rotate(90,55.4538,73.9082)"
       id="path8" />
    <path
       d="M 0,0 H 23.3115"
       style="stroke:#859cbe;stroke-width:2.83465;stroke-linecap:butt;stroke-linejoin:miter;stroke-dasharray:none"
       transform="rotate(90,63.9578,82.4122)"
       id="path9" />
    <path
       d="M 2.67754,6.03927 C 2.58192,6.34506 1.83284,6.65084 1.46628,6.65084 1.37065,6.65084 1.29096,6.62027 1.27502,6.5744 1.24315,6.51324 1.22721,6.17688 1.22721,5.80993 c 0,-0.47397 0.01594,-1.00909 0.04781,-1.13141 0.03187,-0.25991 0.76502,-0.58099 1.16346,-0.58099 0.11156,0 0.20719,0.03058 0.23906,0.09174 0.03188,0.07644 0.06376,0.45868 0.06376,0.87148 0,0.41282 -0.03188,0.84092 -0.06376,0.97852 z M 3.77725,3.54712 C 3.88882,3.50125 3.96851,3.37894 3.96851,3.2872 V 2.20165 c 0,-0.07644 -0.04782,-0.1223 -0.11157,-0.1223 -0.03187,0 -0.04782,0 -0.07969,0.01528 0,0 -0.31875,0.12232 -0.39845,0.13761 -0.11155,0 -0.22312,-0.07645 -0.22312,-0.19877 V 0.168182 C 3.15568,0.0764465 3.06005,0 2.93255,0 2.77317,0 2.67754,0.0764465 2.67754,0.168182 V 2.15579 C 2.66161,2.30869 2.6138,2.50744 2.47036,2.59918 2.2791,2.70621 1.73722,2.92026 1.46628,2.98142 1.32284,2.98142 1.27502,2.79794 1.27502,2.67563 V 0.840912 c 0,-0.091736 -0.11157,-0.168183 -0.22312,-0.168183 -0.159389,0 -0.255012,0.076447 -0.255012,0.168183 V 2.90497 c 0,0.21404 -0.095627,0.36694 -0.191252,0.41281 C 0.510009,3.36364 0.191253,3.48596 0.191253,3.48596 0.0796888,3.51653 0,3.63885 0,3.73059 v 1.08554 c 0,0.09173 0.0478133,0.1376 0.127502,0.1376 0.063751,0 0.366569,-0.1376 0.414382,-0.16818 0.015938,0 0.031875,-0.01529 0.047813,-0.01529 0.111564,0 0.207191,0.1529 0.207191,0.27521 V 6.55911 C 0.796888,6.72729 0.7172,6.8649 0.621573,6.91076 0.525946,6.94134 0.191253,7.07895 0.191253,7.07895 0.0796888,7.10952 0,7.23184 0,7.32358 v 1.08554 c 0,0.09173 0.0478133,0.1376 0.127502,0.1376 0.015938,0 0.047814,-0.0153 0.063751,-0.0153 0,0 0.223129,-0.09173 0.366569,-0.13759 0.015937,-0.0153 0.031875,-0.0153 0.047814,-0.0153 0.111564,0 0.191252,0.16819 0.191252,0.24464 v 1.88063 c 0,0.0916 0.095623,0.1681 0.207192,0.1681 0.15937,0 0.27094,-0.0765 0.27094,-0.1681 V 8.37853 c 0,-0.19875 0.07969,-0.30579 0.15938,-0.33636 L 2.4066,7.65994 c 0.01594,0 0.04782,-0.01529 0.06376,-0.01529 0.1275,0 0.20718,0.18347 0.20718,0.2752 v 1.91113 c 0,0.09178 0.09563,0.16826 0.2072,0.16826 0.17531,0 0.27094,-0.07648 0.27094,-0.16826 V 7.65994 c 0,-0.12232 0.06375,-0.30579 0.17531,-0.35165 C 3.44256,7.26242 3.77725,7.1401 3.77725,7.1401 3.88882,7.09424 3.96851,6.97192 3.96851,6.88018 V 5.79464 c 0,-0.07644 -0.04782,-0.12231 -0.11157,-0.12231 -0.03187,0 -0.04782,0 -0.07969,0.01529 L 3.36287,5.84052 C 3.26725,5.84052 3.15568,5.74877 3.15568,5.5653 V 4.1434 c 0,-0.10703 0.07968,-0.39753 0.20719,-0.44339 z"
       id="Kopie von Text37+U0 (9)"
       style="fill:#171615;fill-rule:evenodd;stroke:none"
       transform="translate(45.7121,12.5347)" />
    <path
       d="m 0.825308,9.20012 c 0,0 -0.052679,-1.06155 -0.052679,-1.76925 0,-0.28308 0.01756,-0.4954 0.03512,-0.56617 C 0.930667,6.51085 1.63306,5.99777 2.03693,5.99777 c 0.50923,0 0.71995,0.58385 0.71995,1.02617 0,0.95539 -0.80775,1.91079 -1.56282,2.38849 C 1.12382,9.44781 1.07114,9.46551 1.01847,9.46551 0.860428,9.46551 0.825308,9.28858 0.825308,9.20012 Z M 0.210717,10.7748 c 0.052679,0.0707 0.105359,0.0884 0.158038,0.0884 0.052679,0 0.105358,-0.0354 0.105358,-0.0354 C 1.00091,10.5271 1.42234,10.0494 1.86133,9.74859 3.42415,8.65165 3.9685,7.57241 3.9685,6.75855 3.9685,5.75007 3.19587,5.11314 2.38813,5.06007 2.08961,5.06007 1.66818,5.20161 1.42234,5.36084 1.31698,5.4493 1.12382,5.60853 1.03603,5.60853 c -0.03512,0 -0.052684,0 -0.087803,-0.01769 C 0.825308,5.53776 0.755069,5.41392 0.755069,5.29007 0.772629,4.90083 0.877988,0.654624 0.877988,0.300773 0.877988,0.106155 0.71995,0 0.544352,0 0.298516,0 0.0175598,0.176925 0,0.495391 c 0,0 0.070239,10.102409 0.210717,10.279409 z"
       id="Kopie von Text35+U0 (7)"
       style="fill:#171615;fill-rule:evenodd;stroke:none"
       transform="translate(64.1508,36.0269)" />
  </g>
</svg>
